<svg xmlns="http://www.w3.org/2000/svg" width="1800" height="998" viewBox="0 0 1800 998">
<defs>
<marker id="arrow-HostsZone" viewBox="0 0 10 10" refX="9" refY="5" markerWidth="8" markerHeight="8" orient="auto-start-reverse"><path d="M 0 0 L 10 5 L 0 10 z" fill="#2563eb"/></marker>
<marker id="arrow-ForwardsTo" viewBox="0 0 10 10" refX="9" refY="5" markerWidth="8" markerHeight="8" orient="auto-start-reverse"><path d="M 0 0 L 10 5 L 0 10 z" fill="#dc2626"/></marker>
<marker id="arrow-ConditionalForwarder" viewBox="0 0 10 10" refX="9" refY="5" markerWidth="8" markerHeight="8" orient="auto-start-reverse"><path d="M 0 0 L 10 5 L 0 10 z" fill="#7c3aed"/></marker>
<marker id="arrow-DelegatesTo" viewBox="0 0 10 10" refX="9" refY="5" markerWidth="8" markerHeight="8" orient="auto-start-reverse"><path d="M 0 0 L 10 5 L 0 10 z" fill="#0891b2"/></marker>
<marker id="arrow-AuthoritativeNS" viewBox="0 0 10 10" refX="9" refY="5" markerWidth="8" markerHeight="8" orient="auto-start-reverse"><path d="M 0 0 L 10 5 L 0 10 z" fill="#059669"/></marker>
<marker id="arrow-RootHint" viewBox="0 0 10 10" refX="9" refY="5" markerWidth="8" markerHeight="8" orient="auto-start-reverse"><path d="M 0 0 L 10 5 L 0 10 z" fill="#ea580c"/></marker>
<marker id="arrow-default" viewBox="0 0 10 10" refX="9" refY="5" markerWidth="8" markerHeight="8" orient="auto-start-reverse"><path d="M 0 0 L 10 5 L 0 10 z" fill="#475569"/></marker>
</defs>
<rect x="0" y="0" width="1800" height="998" fill="#f8fafc"/>
<text x="56" y="50" font-family="Inter, Segoe UI, Arial, sans-serif" font-size="30" font-weight="800" fill="#0f172a" text-anchor="start">
<tspan x="56" dy="0">DNS Map - Combined View</tspan>
</text>
<text x="56" y="78" font-family="Inter, Segoe UI, Arial, sans-serif" font-size="14" font-weight="400" fill="#64748b" text-anchor="start">
<tspan x="56" dy="0">High-level DNS topology. Edge IDs map to dns-relationship-details.csv.</tspan>
</text>
<text x="1320" y="38" font-family="Inter, Segoe UI, Arial, sans-serif" font-size="14" font-weight="700" fill="#0f172a" text-anchor="start">
<tspan x="1320" dy="0">Relationship Legend</tspan>
</text>
<line x1="1320" y1="60" x2="1354" y2="60" stroke="#2563eb" stroke-width="3"/>
<text x="1364" y="64" font-family="Inter, Segoe UI, Arial, sans-serif" font-size="12" font-weight="400" fill="#64748b" text-anchor="start">
<tspan x="1364" dy="0">Hosts zone</tspan>
</text>
<line x1="1320" y1="82" x2="1354" y2="82" stroke="#dc2626" stroke-width="3"/>
<text x="1364" y="86" font-family="Inter, Segoe UI, Arial, sans-serif" font-size="12" font-weight="400" fill="#64748b" text-anchor="start">
<tspan x="1364" dy="0">Forwards to</tspan>
</text>
<line x1="1320" y1="104" x2="1354" y2="104" stroke="#7c3aed" stroke-width="3"/>
<text x="1364" y="108" font-family="Inter, Segoe UI, Arial, sans-serif" font-size="12" font-weight="400" fill="#64748b" text-anchor="start">
<tspan x="1364" dy="0">Conditional forwarder</tspan>
</text>
<line x1="1320" y1="126" x2="1354" y2="126" stroke="#0891b2" stroke-width="3"/>
<text x="1364" y="130" font-family="Inter, Segoe UI, Arial, sans-serif" font-size="12" font-weight="400" fill="#64748b" text-anchor="start">
<tspan x="1364" dy="0">Delegation</tspan>
</text>
<line x1="1320" y1="148" x2="1354" y2="148" stroke="#059669" stroke-width="3"/>
<text x="1364" y="152" font-family="Inter, Segoe UI, Arial, sans-serif" font-size="12" font-weight="400" fill="#64748b" text-anchor="start">
<tspan x="1364" dy="0">Authoritative NS</tspan>
</text>
<line x1="1320" y1="170" x2="1354" y2="170" stroke="#ea580c" stroke-width="3"/>
<text x="1364" y="174" font-family="Inter, Segoe UI, Arial, sans-serif" font-size="12" font-weight="400" fill="#64748b" text-anchor="start">
<tspan x="1364" dy="0">Root hint</tspan>
</text>
<rect x="56" y="114" width="440" height="146" rx="10" fill="#eef2ff" stroke="#4f46e5" stroke-width="1.5"/>
<text x="76" y="144" font-family="Inter, Segoe UI, Arial, sans-serif" font-size="16" font-weight="700" fill="#4f46e5" text-anchor="start">
<tspan x="76" dy="0">AD Site: Branch</tspan>
</text>
<rect x="76" y="166" width="400" height="72" rx="8" fill="#ecfdf5" stroke="#059669" stroke-width="1.5"/>
<text x="90" y="192" font-family="Inter, Segoe UI, Arial, sans-serif" font-size="14" font-weight="700" fill="#0f172a" text-anchor="start">
<tspan x="90" dy="0">dns02.corp.example.com</tspan>
</text>
<text x="90" y="220" font-family="Inter, Segoe UI, Arial, sans-serif" font-size="11" font-weight="400" fill="#64748b" text-anchor="start">
<tspan x="90" dy="0">Subnet: 10.20.0.0/24</tspan>
</text>
<rect x="56" y="294" width="440" height="146" rx="10" fill="#eef2ff" stroke="#4f46e5" stroke-width="1.5"/>
<text x="76" y="324" font-family="Inter, Segoe UI, Arial, sans-serif" font-size="16" font-weight="700" fill="#4f46e5" text-anchor="start">
<tspan x="76" dy="0">AD Site: HQ</tspan>
</text>
<rect x="76" y="346" width="400" height="72" rx="8" fill="#ecfdf5" stroke="#059669" stroke-width="1.5"/>
<text x="90" y="372" font-family="Inter, Segoe UI, Arial, sans-serif" font-size="14" font-weight="700" fill="#0f172a" text-anchor="start">
<tspan x="90" dy="0">dns01.corp.example.com</tspan>
</text>
<text x="90" y="400" font-family="Inter, Segoe UI, Arial, sans-serif" font-size="11" font-weight="400" fill="#64748b" text-anchor="start">
<tspan x="90" dy="0">Subnet: 10.10.0.0/24</tspan>
</text>
<rect x="1160" y="114" width="540" height="322" rx="10" fill="#ffffff" stroke="#cbd5e1" stroke-width="1.5"/>
<text x="1180" y="144" font-family="Inter, Segoe UI, Arial, sans-serif" font-size="16" font-weight="700" fill="#0f172a" text-anchor="start">
<tspan x="1180" dy="0">DnsZone</tspan>
</text>
<rect x="1180" y="166" width="500" height="72" rx="8" fill="#fff7ed" stroke="#ea580c" stroke-width="1.5"/>
<text x="1194" y="192" font-family="Inter, Segoe UI, Arial, sans-serif" font-size="14" font-weight="700" fill="#0f172a" text-anchor="start">
<tspan x="1194" dy="0">corp.example.com</tspan>
</text>
<text x="1194" y="220" font-family="Inter, Segoe UI, Arial, sans-serif" font-size="11" font-weight="400" fill="#64748b" text-anchor="start">
<tspan x="1194" dy="0">HostsZone | corp.example.com</tspan>
</text>
<rect x="1180" y="254" width="500" height="72" rx="8" fill="#fff7ed" stroke="#ea580c" stroke-width="1.5"/>
<text x="1194" y="280" font-family="Inter, Segoe UI, Arial, sans-serif" font-size="14" font-weight="700" fill="#0f172a" text-anchor="start">
<tspan x="1194" dy="0">lab.corp.example.com</tspan>
</text>
<text x="1194" y="308" font-family="Inter, Segoe UI, Arial, sans-serif" font-size="11" font-weight="400" fill="#64748b" text-anchor="start">
<tspan x="1194" dy="0">DelegatesTo | lab.corp.example.com</tspan>
</text>
<rect x="1180" y="342" width="500" height="72" rx="8" fill="#fff7ed" stroke="#ea580c" stroke-width="1.5"/>
<text x="1194" y="368" font-family="Inter, Segoe UI, Arial, sans-serif" font-size="14" font-weight="700" fill="#0f172a" text-anchor="start">
<tspan x="1194" dy="0">partners.example.net</tspan>
</text>
<text x="1194" y="396" font-family="Inter, Segoe UI, Arial, sans-serif" font-size="11" font-weight="400" fill="#64748b" text-anchor="start">
<tspan x="1194" dy="0">ConditionalForwarder | partners.example.net</tspan>
</text>
<rect x="1160" y="470" width="540" height="146" rx="10" fill="#ffffff" stroke="#cbd5e1" stroke-width="1.5"/>
<text x="1180" y="500" font-family="Inter, Segoe UI, Arial, sans-serif" font-size="16" font-weight="700" fill="#0f172a" text-anchor="start">
<tspan x="1180" dy="0">ExternalDns</tspan>
</text>
<rect x="1180" y="522" width="500" height="72" rx="8" fill="#fff7ed" stroke="#ea580c" stroke-width="1.5"/>
<text x="1194" y="548" font-family="Inter, Segoe UI, Arial, sans-serif" font-size="14" font-weight="700" fill="#0f172a" text-anchor="start">
<tspan x="1194" dy="0">8.8.8.8</tspan>
</text>
<text x="1194" y="576" font-family="Inter, Segoe UI, Arial, sans-serif" font-size="11" font-weight="400" fill="#64748b" text-anchor="start">
<tspan x="1194" dy="0">ForwardsTo</tspan>
</text>
<rect x="1160" y="650" width="540" height="234" rx="10" fill="#ffffff" stroke="#cbd5e1" stroke-width="1.5"/>
<text x="1180" y="680" font-family="Inter, Segoe UI, Arial, sans-serif" font-size="16" font-weight="700" fill="#0f172a" text-anchor="start">
<tspan x="1180" dy="0">NameServer</tspan>
</text>
<rect x="1180" y="702" width="500" height="72" rx="8" fill="#fff7ed" stroke="#ea580c" stroke-width="1.5"/>
<text x="1194" y="728" font-family="Inter, Segoe UI, Arial, sans-serif" font-size="14" font-weight="700" fill="#0f172a" text-anchor="start">
<tspan x="1194" dy="0">a.root-servers.net</tspan>
</text>
<text x="1194" y="756" font-family="Inter, Segoe UI, Arial, sans-serif" font-size="11" font-weight="400" fill="#64748b" text-anchor="start">
<tspan x="1194" dy="0">RootHint</tspan>
</text>
<rect x="1180" y="790" width="500" height="72" rx="8" fill="#fff7ed" stroke="#ea580c" stroke-width="1.5"/>
<text x="1194" y="816" font-family="Inter, Segoe UI, Arial, sans-serif" font-size="14" font-weight="700" fill="#0f172a" text-anchor="start">
<tspan x="1194" dy="0">dns01.corp.example.com</tspan>
</text>
<text x="1194" y="844" font-family="Inter, Segoe UI, Arial, sans-serif" font-size="11" font-weight="400" fill="#64748b" text-anchor="start">
<tspan x="1194" dy="0">AuthoritativeNS | corp.example.com</tspan>
</text>
<path d="M 476 382.0 C 708.32 382.0, 947.68 202.0, 1180 202.0" fill="none" stroke="#2563eb" stroke-width="2.2" stroke-opacity="0.78" marker-end="url(#arrow-HostsZone)"/>
<rect x="806.0" y="279.0" width="44" height="22" rx="5" fill="#ffffff" stroke="#2563eb" stroke-width="1"/>
<text x="828.0" y="296.0" font-family="Inter, Segoe UI, Arial, sans-serif" font-size="11" font-weight="700" fill="#2563eb" text-anchor="middle">
<tspan x="828.0" dy="0">D01</tspan>
</text>
<path d="M 476 202.0 C 708.32 202.0, 947.68 202.0, 1180 202.0" fill="none" stroke="#2563eb" stroke-width="2.2" stroke-opacity="0.78" marker-end="url(#arrow-HostsZone)"/>
<rect x="806.0" y="189.0" width="44" height="22" rx="5" fill="#ffffff" stroke="#2563eb" stroke-width="1"/>
<text x="828.0" y="206.0" font-family="Inter, Segoe UI, Arial, sans-serif" font-size="11" font-weight="700" fill="#2563eb" text-anchor="middle">
<tspan x="828.0" dy="0">D02</tspan>
</text>
<path d="M 476 382.0 C 708.32 382.0, 947.68 378.0, 1180 378.0" fill="none" stroke="#7c3aed" stroke-width="2.2" stroke-opacity="0.78" marker-end="url(#arrow-ConditionalForwarder)"/>
<rect x="806.0" y="367.0" width="44" height="22" rx="5" fill="#ffffff" stroke="#7c3aed" stroke-width="1"/>
<text x="828.0" y="384.0" font-family="Inter, Segoe UI, Arial, sans-serif" font-size="11" font-weight="700" fill="#7c3aed" text-anchor="middle">
<tspan x="828.0" dy="0">D03</tspan>
</text>
<path d="M 476 202.0 C 708.32 202.0, 947.68 558.0, 1180 558.0" fill="none" stroke="#dc2626" stroke-width="2.2" stroke-opacity="0.78" marker-end="url(#arrow-ForwardsTo)"/>
<rect x="806.0" y="367.0" width="44" height="22" rx="5" fill="#ffffff" stroke="#dc2626" stroke-width="1"/>
<text x="828.0" y="384.0" font-family="Inter, Segoe UI, Arial, sans-serif" font-size="11" font-weight="700" fill="#dc2626" text-anchor="middle">
<tspan x="828.0" dy="0">D04</tspan>
</text>
<path d="M 476 382.0 C 708.32 382.0, 947.68 290.0, 1180 290.0" fill="none" stroke="#0891b2" stroke-width="2.2" stroke-opacity="0.78" marker-end="url(#arrow-DelegatesTo)"/>
<rect x="806.0" y="323.0" width="44" height="22" rx="5" fill="#ffffff" stroke="#0891b2" stroke-width="1"/>
<text x="828.0" y="340.0" font-family="Inter, Segoe UI, Arial, sans-serif" font-size="11" font-weight="700" fill="#0891b2" text-anchor="middle">
<tspan x="828.0" dy="0">D05</tspan>
</text>
<path d="M 476 382.0 C 708.32 382.0, 947.68 826.0, 1180 826.0" fill="none" stroke="#059669" stroke-width="2.2" stroke-opacity="0.78" marker-end="url(#arrow-AuthoritativeNS)"/>
<rect x="806.0" y="591.0" width="44" height="22" rx="5" fill="#ffffff" stroke="#059669" stroke-width="1"/>
<text x="828.0" y="608.0" font-family="Inter, Segoe UI, Arial, sans-serif" font-size="11" font-weight="700" fill="#059669" text-anchor="middle">
<tspan x="828.0" dy="0">D06</tspan>
</text>
<path d="M 476 382.0 C 708.32 382.0, 947.68 738.0, 1180 738.0" fill="none" stroke="#ea580c" stroke-width="2.2" stroke-opacity="0.78" marker-end="url(#arrow-RootHint)"/>
<rect x="806.0" y="547.0" width="44" height="22" rx="5" fill="#ffffff" stroke="#ea580c" stroke-width="1"/>
<text x="828.0" y="564.0" font-family="Inter, Segoe UI, Arial, sans-serif" font-size="11" font-weight="700" fill="#ea580c" text-anchor="middle">
<tspan x="828.0" dy="0">D07</tspan>
</text>
<text x="56" y="970" font-family="Inter, Segoe UI, Arial, sans-serif" font-size="12" font-weight="400" fill="#64748b" text-anchor="start">
<tspan x="56" dy="0">7 DNS relationships rendered. Detailed DNS records are intentionally kept in JSON/CSV, not the diagram.</tspan>
</text>
</svg>